<svg width="165" height="43" viewBox="0 0 165 43" fill="none" xmlns="http://www.w3.org/2000/svg">
<path d="M35.582 41.6006C34.1036 41.6006 32.7135 41.0248 31.6694 39.98C30.623 38.9364 30.0479 37.5473 30.0479 36.0685C30.0479 34.5922 30.623 33.2031 31.6666 32.1602C32.7117 31.1147 34.1018 30.5389 35.5799 30.5389C37.0573 30.5389 38.4464 31.113 39.49 32.1577C41.647 34.3154 41.647 37.8259 39.49 39.9825C38.4464 41.0265 37.058 41.6006 35.582 41.6006Z" fill="#E0BF8D"/>
<path d="M5.53382 12.1069C4.05574 12.1069 2.6656 11.5308 1.62018 10.4853C0.575822 9.44168 0 8.05295 0 6.57487C0 5.0975 0.574065 3.7091 1.61772 2.6665C2.6642 1.62038 4.05469 1.04421 5.53276 1.04421C7.00943 1.04421 8.39817 1.61934 9.44148 2.663C10.4876 3.70841 11.0631 5.0982 11.0631 6.57557C11.0631 8.05365 10.4876 9.44273 9.44218 10.4882C8.39817 11.5318 7.01014 12.1069 5.53382 12.1069Z" fill="#E0BF8D"/>
<path d="M35.3362 11.9446C33.8571 11.9446 32.4684 11.3688 31.4237 10.324C29.2677 8.16743 29.266 4.65867 31.4205 2.50346C32.4659 1.45804 33.8557 0.88116 35.3348 0.88116C36.8118 0.88116 38.2009 1.45699 39.2456 2.50171C41.4016 4.65762 41.4016 8.16814 39.2456 10.3276C38.2016 11.3695 36.8129 11.9446 35.3362 11.9446Z" fill="#E0BF8D"/>
<path d="M5.6773 41.6006C4.19957 41.6006 2.80943 41.0248 1.76331 39.98C0.718597 38.9357 0.14418 37.5473 0.144531 36.0692C0.144531 34.5922 0.72141 33.2031 1.76648 32.1584C1.98527 31.9382 2.2322 31.737 2.54562 31.5249C2.63989 31.4595 2.72712 31.4071 2.81717 31.3522C3.02189 31.2347 3.22591 31.1274 3.41621 31.0402C3.51998 30.9937 3.62621 30.9463 3.73842 30.9033C3.93716 30.8295 4.15947 30.7633 4.41273 30.7032C4.46339 30.6898 4.50806 30.6779 4.55344 30.6648C4.58193 30.6571 4.60901 30.6476 4.63821 30.6406L5.86936 30.5569C6.02553 30.5639 6.19262 30.5832 6.37096 30.6068L6.44131 30.616C6.48317 30.6212 6.5398 30.6258 6.59644 30.6286L6.64603 30.6321L6.70231 30.6434H6.7512C6.84125 30.6469 6.9313 30.6487 7.0203 30.6487C9.14314 30.6487 11.2382 29.7447 12.769 28.1695C14.2935 26.6014 15.1335 24.4919 15.073 22.3806L15.0716 22.318L15.0597 22.2526C15.0484 22.1939 15.0449 22.1337 15.041 22.0746C15.0358 22.0036 15.0298 21.9332 15.021 21.8618L15.0073 21.738C14.9953 21.6314 14.9837 21.5276 14.9763 21.4218L15.0709 20.186C15.0769 20.1551 15.0878 20.1269 15.0966 20.097L15.1188 20.0207C15.1754 19.7868 15.2363 19.5518 15.3245 19.3249C15.3699 19.1955 15.4135 19.1002 15.4607 19.0027C15.5592 18.7868 15.6612 18.5905 15.7811 18.3889C15.8335 18.3017 15.8842 18.2134 15.944 18.1276C16.1677 17.8018 16.3707 17.5528 16.5814 17.3418C17.6261 16.2974 19.0148 15.7223 20.495 15.7223C21.972 15.7223 23.3629 16.2967 24.4083 17.3403C26.5624 19.497 26.561 23.0068 24.4034 25.1644C24.1853 25.3829 23.938 25.5837 23.6235 25.7987C23.5317 25.8613 23.4445 25.9133 23.3569 25.965C23.1581 26.0836 22.9576 26.1891 22.7582 26.2813C22.6499 26.3298 22.5419 26.3794 22.4374 26.4185C22.2256 26.4969 22.0012 26.5641 21.7655 26.6168L21.6329 26.6541C21.603 26.6622 21.5735 26.6717 21.5439 26.6798L20.3005 26.7677C20.1549 26.7618 20.0022 26.7421 19.8404 26.7213L19.7299 26.7079C19.693 26.7016 19.6346 26.6977 19.5766 26.6942L19.5326 26.69L19.4693 26.6777H19.4193C19.3286 26.6745 19.2396 26.6735 19.1495 26.6735C17.027 26.6735 14.9327 27.5768 13.4026 29.1516C11.877 30.7204 11.0373 32.832 11.0975 34.9433L11.0993 35.0062L11.1109 35.0685C11.1225 35.1283 11.1249 35.1874 11.1299 35.2475C11.1351 35.3186 11.1415 35.3893 11.1499 35.4593C11.152 35.5011 11.1608 35.5775 11.1703 35.652C11.1798 35.7368 11.1907 35.8191 11.1907 35.9039V35.9338L11.1017 37.1182C11.0957 37.1428 11.0563 37.2796 11.0451 37.3222C10.9853 37.5772 10.9174 37.8037 10.8421 38.0067C10.801 38.12 10.7591 38.2177 10.7102 38.3194C10.6142 38.5294 10.5097 38.731 10.3912 38.9357C10.3391 39.0194 10.2776 39.1179 10.2149 39.2125C10.0092 39.5104 9.80515 39.7616 9.58671 39.9811C8.54445 41.0248 7.15572 41.6006 5.67835 41.6006H5.6773Z" fill="#E0BF8D"/>
<path d="M20.6156 41.6006C19.1364 41.6006 17.7467 41.0248 16.7012 39.979C15.6565 38.935 15.0818 37.5466 15.0811 36.0685C15.08 34.5922 15.6551 33.2038 16.6988 32.1619C16.9119 31.9473 17.1536 31.7507 17.4846 31.5217C17.5666 31.4661 17.6548 31.4123 17.7474 31.3589C17.9507 31.2375 18.1459 31.1344 18.3489 31.0412C18.4572 30.9923 18.5624 30.9434 18.6697 30.9033C18.8751 30.8277 19.0988 30.7616 19.3362 30.7095C19.3362 30.7095 19.5308 30.6532 19.5557 30.6469L20.8066 30.5551C20.9543 30.5621 21.1133 30.5832 21.2797 30.6047L21.3722 30.617C21.4338 30.623 21.4851 30.6279 21.5368 30.6286C21.5576 30.6304 21.578 30.6304 21.5977 30.6321L21.6371 30.6378L21.6891 30.6427C21.7806 30.6452 21.8735 30.6476 21.9653 30.6476C24.0835 30.6469 26.1751 29.7447 27.7028 28.1713C29.2273 26.6042 30.0669 24.4919 30.0071 22.3806L29.9994 22.1228L29.9765 22.0943C29.9754 22.0855 29.9754 22.0753 29.9744 22.0662C29.9712 22.006 29.9677 21.9452 29.9617 21.8843L29.9413 21.707C29.9297 21.6096 29.9171 21.5136 29.9135 21.4158L29.9994 20.2184C30.006 20.1896 30.049 20.0411 30.0592 19.9964C30.1295 19.7105 30.1911 19.5012 30.2618 19.3154C30.3008 19.2039 30.349 19.1019 30.3976 18.995C30.4862 18.8019 30.5896 18.606 30.7166 18.39L30.7405 18.3506C30.7834 18.2778 30.8242 18.2057 30.8749 18.1357C31.1014 17.8057 31.3026 17.557 31.5151 17.3446C32.5609 16.2991 33.951 15.7233 35.4294 15.7233C36.9068 15.7233 38.2952 16.2981 39.3395 17.3418C41.4951 19.498 41.4951 23.0096 39.3395 25.168C39.1306 25.3762 38.8812 25.5778 38.5562 25.8022C38.4936 25.8451 38.4338 25.8806 38.3736 25.9168L38.2769 25.977C38.0919 26.0864 37.8903 26.1919 37.6944 26.282C37.5836 26.3316 37.4795 26.3794 37.3694 26.4206C37.1755 26.4934 36.9624 26.5553 36.6933 26.6197C36.6395 26.6323 36.5958 26.646 36.5529 26.6591C36.5227 26.6668 36.4945 26.6759 36.4653 26.683L35.236 26.7677C35.0562 26.76 34.8613 26.7336 34.6728 26.7086C34.6088 26.7009 34.5588 26.6984 34.5099 26.696C34.4913 26.6949 34.4723 26.6949 34.4537 26.6925L34.3488 26.6812C34.2574 26.6777 34.1666 26.6759 34.0755 26.6759C31.9558 26.6759 29.8639 27.5792 28.3342 29.1523C26.811 30.7215 25.9718 32.832 26.0337 34.945L26.0354 35.0069L26.0474 35.0674C26.0593 35.13 26.0618 35.1944 26.0664 35.257C26.0706 35.3221 26.0755 35.3858 26.0826 35.448C26.0868 35.5004 26.0945 35.5669 26.1012 35.6323C26.1125 35.7259 26.1237 35.8198 26.1262 35.9134L26.0354 37.1273C26.0284 37.154 25.9813 37.3176 25.9813 37.3176C25.9222 37.5747 25.8564 37.8002 25.7783 38.012C25.7414 38.1115 25.6977 38.2072 25.6531 38.3074L25.6379 38.3426C25.5461 38.5407 25.4431 38.7359 25.3284 38.9269C25.2721 39.0215 25.2162 39.1137 25.1571 39.2013C24.9404 39.5157 24.7364 39.7658 24.518 39.9864C23.4782 41.0265 22.0919 41.6006 20.6156 41.6006Z" fill="#E0BF8D"/>
<path d="M5.68031 26.6658C4.20223 26.6658 2.81279 26.091 1.76843 25.047C0.723365 24.0012 0.147189 22.6118 0.146486 21.1337C0.145431 19.6574 0.719496 18.2701 1.76421 17.2264C1.97843 17.0118 2.22782 16.8099 2.54862 16.5887C2.63199 16.5324 2.72661 16.4747 2.82088 16.4181C3.01188 16.3052 3.20711 16.2014 3.4157 16.1057C3.52264 16.0568 3.62887 16.0086 3.74178 15.9668C3.94509 15.8922 4.16952 15.8264 4.40308 15.774L4.54378 15.7346C4.56981 15.7269 4.59479 15.7184 4.62046 15.7124L5.87236 15.6224C6.03487 15.6291 6.21075 15.6523 6.39472 15.6769L6.43342 15.6822C6.49779 15.6889 6.54738 15.6917 6.59803 15.6942C6.61597 15.6949 6.63391 15.6949 6.65185 15.6977L6.70567 15.7068L6.75632 15.7089C6.84919 15.7114 6.94065 15.7131 7.03246 15.7131C9.15003 15.7131 11.2416 14.8109 12.7699 13.2364C14.2937 11.668 15.1327 9.55636 15.0718 7.44407L15.0701 7.38322L15.0581 7.32343C15.0451 7.25624 15.0433 7.1887 15.0391 7.12011C15.0359 7.06453 15.0324 7.0086 15.0265 6.95057L15.0075 6.77996C14.9944 6.67901 14.9818 6.57595 14.9793 6.47324L15.0623 5.31138L15.0701 5.28465V5.26178C15.0768 5.23504 15.1225 5.08063 15.1225 5.08063C15.1925 4.78339 15.2551 4.56848 15.3254 4.37888C15.3648 4.27441 15.4137 4.16993 15.4633 4.06194C15.5534 3.8632 15.6589 3.66166 15.7806 3.45693L15.7993 3.42526C15.8471 3.34541 15.8946 3.26592 15.9484 3.18607C16.1676 2.86809 16.3691 2.61975 16.5798 2.4101C17.6252 1.36433 19.015 0.788502 20.4941 0.788502C21.9722 0.788502 23.3613 1.36362 24.4067 2.40799C26.5626 4.56495 26.5609 8.07548 24.4043 10.2314C24.1907 10.4456 23.9364 10.6524 23.6251 10.8631C23.5404 10.9229 23.4675 10.9659 23.3919 11.0105L23.3511 11.0345C23.1481 11.1551 22.948 11.2606 22.7598 11.3472C22.6483 11.3985 22.5438 11.446 22.4376 11.4851C22.2301 11.5624 22.0099 11.6275 21.7615 11.6848C21.7091 11.6975 21.662 11.7116 21.6152 11.7242C21.5867 11.732 21.5579 11.7411 21.5283 11.7485L20.3021 11.834C20.1473 11.8263 19.9809 11.8059 19.8068 11.7833L19.7315 11.7738C19.6749 11.7672 19.6229 11.7643 19.5722 11.7612C19.5514 11.7601 19.531 11.7601 19.5106 11.7566L19.4695 11.7517L19.4153 11.7475C19.3239 11.7439 19.2328 11.7422 19.1409 11.7422C17.023 11.7422 14.9311 12.6444 13.4024 14.2171C11.8779 15.786 11.0382 17.8983 11.0984 20.0113L11.1002 20.0732L11.1111 20.1337C11.1241 20.1956 11.1265 20.2596 11.1308 20.3226C11.135 20.3873 11.1403 20.4509 11.1469 20.516C11.1522 20.5674 11.16 20.6332 11.1677 20.6986C11.1779 20.7911 11.1899 20.8818 11.1916 20.9737L11.1033 22.1791C11.0966 22.2101 11.0864 22.2417 11.0769 22.2741L11.046 22.3821C10.9844 22.6522 10.9194 22.8767 10.8455 23.0765C10.8061 23.1806 10.7554 23.2886 10.7051 23.3997C10.614 23.5981 10.5113 23.7947 10.3914 23.9949C10.334 24.0906 10.2809 24.1806 10.2232 24.2657C9.99635 24.5946 9.80112 24.8363 9.58761 25.048C8.54324 26.0917 7.15592 26.6658 5.68031 26.6658Z" fill="#E0BF8D"/>
<path d="M60.612 30V16.6309H55.5956V12.9538H69.9631V16.6309H64.7762V30H60.612ZM72.7252 30V12.9538H84.6088V16.5092H76.7919V26.4447H84.8767V30H72.7252ZM74.6977 23.0354V19.6262H83.5373V23.0354H74.6977ZM96.022 30.2435C94.7395 30.2435 93.5544 30.0325 92.4666 29.6104C91.3952 29.172 90.4617 28.5632 89.6662 27.784C88.8869 26.9885 88.2781 26.055 87.8398 24.9835C87.4177 23.8958 87.2067 22.7107 87.2067 21.4282C87.2067 20.1619 87.4258 18.993 87.8642 17.9216C88.3187 16.8501 88.9519 15.9166 89.7636 15.1211C90.5753 14.3256 91.525 13.7087 92.6128 13.2704C93.7167 12.832 94.9099 12.6129 96.1925 12.6129C97.0042 12.6129 97.7997 12.7184 98.5789 12.9295C99.3582 13.1405 100.081 13.4571 100.746 13.8792C101.428 14.285 102.013 14.7802 102.5 15.3646L99.9426 18.2625C99.4393 17.7105 98.8711 17.2803 98.238 16.9718C97.6211 16.6634 96.9311 16.5092 96.1681 16.5092C95.5187 16.5092 94.9018 16.6228 94.3174 16.8501C93.7492 17.0774 93.254 17.4102 92.8319 17.8485C92.4098 18.2868 92.077 18.8063 91.8335 19.407C91.59 20.0077 91.4682 20.6895 91.4682 21.4526C91.4682 22.1993 91.5819 22.8812 91.8091 23.4981C92.0527 24.0988 92.3936 24.6183 92.8319 25.0566C93.2865 25.4787 93.8222 25.8034 94.4391 26.0307C95.0723 26.258 95.7704 26.3716 96.5334 26.3716C97.0366 26.3716 97.5156 26.3067 97.9701 26.1768C98.4409 26.0307 98.8793 25.8277 99.2851 25.568C99.691 25.3082 100.04 25.016 100.332 24.6913L102.353 27.9058C101.964 28.3441 101.428 28.7418 100.746 29.099C100.081 29.4561 99.3338 29.7402 98.5059 29.9513C97.6941 30.1461 96.8662 30.2435 96.022 30.2435ZM115.613 30V12.9538H119.777V30H115.613ZM105.02 30V12.9538H109.184V30H105.02ZM106.676 23.3763V19.6262H117.805V23.3763H106.676ZM138.721 30.1461C137.308 30.1461 136.05 29.862 134.946 29.2938C133.859 28.7094 132.998 27.9139 132.365 26.9073C131.732 25.8846 131.415 24.7319 131.415 23.4494V12.9295H135.604V23.2302C135.604 23.8471 135.742 24.3991 136.018 24.8861C136.294 25.3732 136.667 25.7628 137.138 26.055C137.625 26.331 138.153 26.469 138.721 26.469C139.321 26.469 139.865 26.331 140.352 26.055C140.839 25.7628 141.221 25.3732 141.497 24.8861C141.789 24.3991 141.935 23.8471 141.935 23.2302V12.9295H145.978V23.4494C145.978 24.7319 145.661 25.8846 145.028 26.9073C144.411 27.9139 143.559 28.7094 142.471 29.2938C141.383 29.862 140.133 30.1461 138.721 30.1461ZM159.762 30L154.502 22.3779L147.708 12.9538H152.773L157.936 20.4785L164.827 30H159.762ZM147.586 30L154.088 20.6976L157.424 22.6701L152.408 30H147.586ZM158.325 22.11L155.013 20.2106L159.762 12.9538H164.584L158.325 22.11Z" fill="#383838"/>
</svg>
